<?xml version="1.0" encoding="UTF-8" standalone="no"?>
<!-- Created with Inkscape (http://www.inkscape.org/) -->

<svg
   xmlns:dc="http://purl.org/dc/elements/1.1/"
   xmlns:cc="http://creativecommons.org/ns#"
   xmlns:rdf="http://www.w3.org/1999/02/22-rdf-syntax-ns#"
   xmlns:svg="http://www.w3.org/2000/svg"
   xmlns="http://www.w3.org/2000/svg"
   xmlns:sodipodi="http://sodipodi.sourceforge.net/DTD/sodipodi-0.dtd"
   xmlns:inkscape="http://www.inkscape.org/namespaces/inkscape"
   width="48pt"
   height="48pt"
   viewBox="0 0 16.933334 16.933333"
   version="1.1"
   id="svg979"
   inkscape:version="0.92.4 (5da689c313, 2019-01-14)"
   sodipodi:docname="11 - Lipstick.svg"
   inkscape:export-filename="E:\TR Design Studio Creative\Project Design\TR Creative Design\Icon Design\Project Hiring\Icon Icons\Project - 001\002 - Beauty And Fashion\Send\Line\11 - Lipstick.png"
   inkscape:export-xdpi="768"
   inkscape:export-ydpi="768">
  <defs
     id="defs973" />
  <sodipodi:namedview
     id="base"
     pagecolor="#ffffff"
     bordercolor="#666666"
     borderopacity="1.0"
     inkscape:pageopacity="0.0"
     inkscape:pageshadow="2"
     inkscape:zoom="8.546875"
     inkscape:cx="12.987203"
     inkscape:cy="32"
     inkscape:document-units="pt"
     inkscape:current-layer="layer1"
     showgrid="false"
     units="pt"
     inkscape:window-width="1366"
     inkscape:window-height="716"
     inkscape:window-x="-8"
     inkscape:window-y="-8"
     inkscape:window-maximized="1"
     inkscape:snap-bbox="true"
     inkscape:bbox-nodes="true"
     inkscape:snap-nodes="false"
     showguides="false">
    <inkscape:grid
       type="xygrid"
       id="grid1526" />
    <sodipodi:guide
       position="0.97013909,15.963209"
       orientation="56.666615,0"
       id="guide1528"
       inkscape:locked="false" />
    <sodipodi:guide
       position="0.97013909,0.97016731"
       orientation="0,56.666667"
       id="guide1530"
       inkscape:locked="false" />
    <sodipodi:guide
       position="15.963195,0.97016731"
       orientation="-56.666615,0"
       id="guide1532"
       inkscape:locked="false" />
    <sodipodi:guide
       position="15.963195,15.963209"
       orientation="0,-56.666667"
       id="guide1534"
       inkscape:locked="false" />
  </sodipodi:namedview>
  <metadata
     id="metadata976">
    <rdf:RDF>
      <cc:Work
         rdf:about="">
        <dc:format>image/svg+xml</dc:format>
        <dc:type
           rdf:resource="http://purl.org/dc/dcmitype/StillImage" />
        <dc:title></dc:title>
      </cc:Work>
    </rdf:RDF>
  </metadata>
  <g
     inkscape:label="Layer 1"
     inkscape:groupmode="layer"
     id="layer1"
     transform="translate(0,-280.06668)">
    <path
       style="color:#000000;font-style:normal;font-variant:normal;font-weight:normal;font-stretch:normal;font-size:medium;line-height:normal;font-family:sans-serif;font-variant-ligatures:normal;font-variant-position:normal;font-variant-caps:normal;font-variant-numeric:normal;font-variant-alternates:normal;font-feature-settings:normal;text-indent:0;text-align:start;text-decoration:none;text-decoration-line:none;text-decoration-style:solid;text-decoration-color:#000000;letter-spacing:normal;word-spacing:normal;text-transform:none;writing-mode:lr-tb;direction:ltr;text-orientation:mixed;dominant-baseline:auto;baseline-shift:baseline;text-anchor:start;white-space:normal;shape-padding:0;clip-rule:nonzero;display:inline;overflow:visible;visibility:visible;opacity:1;isolation:auto;mix-blend-mode:normal;color-interpolation:sRGB;color-interpolation-filters:linearRGB;solid-color:#000000;solid-opacity:1;vector-effect:none;fill:#000000;fill-opacity:1;fill-rule:nonzero;stroke:none;stroke-width:0.529167;stroke-linecap:round;stroke-linejoin:round;stroke-miterlimit:10;stroke-dasharray:none;stroke-dashoffset:0;stroke-opacity:1;paint-order:markers fill stroke;color-rendering:auto;image-rendering:auto;shape-rendering:auto;text-rendering:auto;enable-background:accumulate"
       d="m 5.4146888,281.03973 c -0.1484571,0.0137 -0.2936726,0.0755 -0.4073089,0.1891 l -0.657136,0.65714 c -0.060254,0.0611 -0.093533,0.14376 -0.092972,0.22958 v 2.58174 c -0.3538554,10e-6 -0.6482826,0.29126 -0.6482794,0.64511 v 4.27234 c -0.3748171,0.13474 -0.6476485,0.49122 -0.6476485,0.91012 v 4.85736 c 0,0.35385 0.293799,0.64765 0.6476479,0.64765 h 3.8846212 c 0.3538488,0 0.6476479,-0.2938 0.6476479,-0.64765 v -4.85736 c 0,-0.41918 -0.2724428,-0.77623 -0.6476479,-0.91076 v -4.2717 c 6.4e-6,-0.35385 -0.2912603,-0.64511 -0.6451156,-0.64511 v -1.93409 c -3.238e-4,-0.0591 -0.017163,-0.11663 -0.048069,-0.16697 l -0.7431501,-1.23837 c -0.1378,-0.22968 -0.3951591,-0.34088 -0.6425896,-0.31813 z m 0.071471,0.63689 c 0.00547,7.7e-4 0.010562,0.006 0.01645,0.0158 l 0.6976106,1.15932 v 1.84553 H 4.9049251 v -2.44828 l 0.5616339,-0.56163 c 0.00807,-0.009 0.014119,-0.011 0.019624,-0.011 z M 4.2572707,285.3424 H 6.848497 v 2.91632 H 4.2572708 Z m 5.505007,2.91632 c -0.53259,0 -0.9727348,0.43826 -0.9727348,0.97084 v 6.15266 c 0,0.35385 0.2937926,0.64765 0.647648,0.64765 H 13.32371 c 0.353852,0 0.64828,-0.2938 0.64828,-0.64765 v -6.15266 c 0,-0.53258 -0.440777,-0.97084 -0.97337,-0.97084 z m -5.505007,0.64765 H 6.848497 v 0.64828 H 4.2572708 Z m 5.505007,0 H 12.99862 c 0.184991,0 0.32509,0.1382 0.32509,0.32319 v 4.85736 H 9.437191 v -3.88716 h 2.913781 c 0.468175,0.0395 0.468175,-0.68468 0,-0.64511 H 9.437191 v -0.32509 c 0,-0.18499 0.1400991,-0.32319 0.3250867,-0.32319 z m -5.8300938,1.29339 H 7.171055 c 0.1849876,0 0.3225578,0.14012 0.3225578,0.3251 v 4.85736 H 6.8484971 v -1.61849 c 6.476e-4,-0.17984 -0.1452545,-0.32579 -0.3250901,-0.32509 H 4.5798318 c -0.1789029,6.4e-4 -0.3232507,0.14619 -0.322561,0.32509 v 1.61849 H 3.6089915 v -4.85736 c 0,-0.18498 0.1382048,-0.3251 0.3231924,-0.3251 z m 6.4733151,0.64323 a 0.32385651,0.32385651 0 0 0 -0.153055,0.043 0.32385651,0.32385651 0 0 0 -0.0026,0 0.32385651,0.32385651 0 0 0 -0.04806,0.0361 0.32385651,0.32385651 0 0 0 -0.0044,0.002 0.32385651,0.32385651 0 0 0 -0.04301,0.043 0.32385651,0.32385651 0 0 0 -0.0076,0.01 0.32385651,0.32385651 0 0 0 -0.01202,0.0164 0.32385651,0.32385651 0 0 0 0,0.002 0.32385651,0.32385651 0 0 0 -0.01645,0.0265 0.32385651,0.32385651 0 0 0 0,0.002 0.32385651,0.32385651 0 0 0 -0.03352,0.2005 v 1.89108 a 0.32385651,0.32385651 0 0 0 0.325086,0.32256 h 1.941047 a 0.32385651,0.32385651 0 0 0 0.32509,-0.32256 V 291.172 a 0.32385651,0.32385651 0 0 0 -0.325089,-0.32506 h -1.898037 a 0.32385651,0.32385651 0 0 0 -0.04744,-0.005 z m -5.8256673,0.005 a 0.32414031,0.32414031 0 1 0 0,0.64828 h 1.9435751 a 0.32414031,0.32414031 0 1 0 0,-0.64828 z m 6.1526553,0.64828 h 1.295927 v 1.2953 h -1.295927 z m -6.1526553,0.64765 a 0.32390554,0.32390554 0 1 0 0,0.64765 h 0.9727347 a 0.32390554,0.32390554 0 1 0 0,-0.64765 z m 0.3250869,1.94358 h 1.2952957 v 1.29529 H 4.9049188 Z m 4.5322723,0.64764 H 13.32371 v 0.64765 H 9.437191 Z"
       id="rect1097"
       inkscape:connector-curvature="0" />
  </g>
</svg>
